<svg width="140" height="70" viewBox="0 0 140 70" fill="none" xmlns="http://www.w3.org/2000/svg">
<path d="M34.5879 63.4118C34.6702 63.4118 34.6702 63.4118 34.6702 63.4941L34.9996 63.8235C34.7526 64.0706 34.5055 64.3176 34.1761 64.4C33.8467 64.5647 33.5173 64.6471 33.0232 64.6471C32.6114 64.6471 32.282 64.5647 31.9526 64.4824C31.6232 64.3176 31.3761 64.1529 31.129 63.9059C30.882 63.6588 30.7173 63.4118 30.6349 63.0823C30.5526 62.7529 30.4702 62.3412 30.4702 62.0118C30.4702 61.6 30.5526 61.2706 30.6349 60.9412C30.7996 60.6118 30.9643 60.2823 31.2114 60.1176C31.4585 59.8706 31.7055 59.7059 32.0349 59.5412C32.3643 59.3765 32.6937 59.3765 33.1055 59.3765C33.5173 59.3765 33.8467 59.4588 34.0937 59.5412C34.4232 59.7059 34.6702 59.8706 34.8349 60.0353L34.5879 60.3647C34.5879 60.3647 34.5879 60.4471 34.5055 60.4471H34.4232C34.3408 60.4471 34.3408 60.4471 34.2584 60.3647C34.1761 60.2824 34.0937 60.2823 34.0114 60.2C33.929 60.1176 33.7643 60.1176 33.5996 60.0353C33.4349 59.9529 33.2702 59.9529 33.0232 59.9529C32.7761 59.9529 32.529 60.0353 32.282 60.1176C32.0349 60.2 31.8702 60.3647 31.7055 60.5294C31.5408 60.6941 31.4585 60.9412 31.2937 61.1882C31.2114 61.4353 31.129 61.7647 31.129 62.0118C31.129 62.3412 31.2114 62.5882 31.2937 62.9176C31.3761 63.2471 31.5408 63.4118 31.7055 63.5765C31.8702 63.7412 32.0349 63.9059 32.282 63.9882C32.529 64.0706 32.7761 64.1529 33.0232 64.1529C33.1879 64.1529 33.3526 64.1529 33.4349 64.1529C33.5173 64.1529 33.682 64.0706 33.7643 64.0706C33.8467 64.0706 33.929 63.9882 34.0937 63.9059C34.1761 63.8235 34.2585 63.7412 34.3408 63.6588C34.5055 63.4118 34.5055 63.4118 34.5879 63.4118Z" fill="#231F20"/>
<path d="M36.6465 61.4353C36.7288 61.1882 36.8935 61.0235 37.0582 60.8588C37.2229 60.6941 37.47 60.6118 37.717 60.6118C37.7994 60.6118 37.8817 60.6118 37.9641 60.6118C38.0464 60.6118 38.1288 60.6941 38.1288 60.6941L38.0465 61.2706C38.0465 61.3529 37.9641 61.3529 37.9641 61.3529C37.9641 61.3529 37.8817 61.3529 37.7994 61.3529C37.717 61.3529 37.6347 61.3529 37.5523 61.3529C37.47 61.3529 37.3053 61.3529 37.2229 61.4353C37.1406 61.4353 37.0582 61.5176 36.9759 61.6C36.8935 61.6823 36.8112 61.7647 36.8112 61.847C36.7288 61.9294 36.7288 62.0118 36.6465 62.1765V64.5647H35.9053V60.7765H36.317C36.3994 60.7765 36.4817 60.7765 36.4817 60.8588C36.4817 60.8588 36.5641 60.9412 36.5641 61.0235L36.6465 61.4353Z" fill="#231F20"/>
<path d="M41.9173 63.9882C41.835 64.0706 41.7526 64.1529 41.5879 64.2353C41.5056 64.3176 41.3408 64.4 41.1761 64.4C41.0114 64.4823 40.9291 64.4823 40.7644 64.4823C40.5997 64.4823 40.5173 64.4823 40.3526 64.4823C40.1056 64.4823 39.8585 64.4 39.6114 64.3176C39.3644 64.2353 39.1997 64.0706 39.035 63.9059C38.8703 63.7412 38.7056 63.4941 38.6232 63.2471C38.5408 63 38.4585 62.6706 38.4585 62.3412C38.4585 62.0941 38.4585 61.8471 38.5408 61.6C38.6232 61.3529 38.7056 61.1882 38.8703 61.0235C39.035 60.8588 39.1997 60.6941 39.4467 60.6118C39.6938 60.5294 39.9408 60.4471 40.1879 60.4471C40.435 60.4471 40.5997 60.4471 40.8467 60.5294C41.0114 60.6118 41.1761 60.6941 41.3408 60.8588C41.5056 61.0235 41.5879 61.1882 41.6703 61.3529C41.7526 61.6 41.7526 61.7647 41.7526 62.0941C41.7526 62.1765 41.7526 62.2588 41.7526 62.3412C41.7526 62.3412 41.6703 62.4235 41.5879 62.4235H39.1173C39.1173 62.6706 39.1173 62.8353 39.1997 63C39.282 63.1647 39.3644 63.3294 39.4467 63.4118C39.5291 63.4941 39.6938 63.5765 39.7761 63.6588C39.9408 63.7412 40.1056 63.7412 40.2703 63.7412C40.435 63.7412 40.5997 63.7412 40.682 63.6588C40.7644 63.6588 40.9291 63.5765 41.0114 63.5765C41.0938 63.4941 41.1761 63.4941 41.2585 63.4941C41.3408 63.4941 41.3408 63.4118 41.4232 63.4118C41.5056 63.4118 41.5056 63.4118 41.5879 63.4941L41.9173 63.9882ZM41.3408 62.2588C41.3408 62.0941 41.3408 62.0118 41.2585 61.847C41.2585 61.7647 41.1761 61.6 41.0938 61.5176C41.0114 61.4353 40.9291 61.3529 40.7644 61.2706C40.682 61.1882 40.5173 61.1882 40.3526 61.1882C40.0232 61.1882 39.7761 61.2706 39.6114 61.4353C39.4467 61.6 39.3644 61.8471 39.282 62.1765H41.3408V62.2588Z" fill="#231F20"/>
<path d="M42.9879 61.2706C43.235 61.1059 43.3997 60.9412 43.6468 60.8588C43.8938 60.7765 44.1409 60.6941 44.4703 60.6941C44.7174 60.6941 44.8821 60.6941 45.0468 60.7765C45.2115 60.8588 45.3762 60.9412 45.4585 61.1059C45.5409 61.2706 45.6232 61.3529 45.7056 61.6C45.7879 61.7647 45.7879 62.0118 45.7879 62.1765V64.5647H45.4585C45.3762 64.5647 45.2938 64.5647 45.2938 64.5647C45.2938 64.5647 45.2115 64.4823 45.2115 64.4L45.1291 64.0706C45.0468 64.1529 44.9644 64.2353 44.8821 64.3176C44.7997 64.4 44.7174 64.4823 44.5527 64.4823C44.4703 64.5647 44.3056 64.5647 44.2232 64.5647C44.1409 64.5647 43.9762 64.5647 43.8115 64.5647C43.6468 64.5647 43.4821 64.5647 43.3997 64.4823C43.235 64.4823 43.1527 64.4 43.0703 64.3176C42.9879 64.2353 42.9056 64.1529 42.8232 63.9882C42.8232 63.9059 42.8232 63.7412 42.8232 63.5765C42.8232 63.4118 42.8232 63.247 42.9056 63.1647C42.9879 63 43.1527 62.9176 43.3174 62.7529C43.4821 62.6706 43.7291 62.5882 44.0585 62.5059C44.3879 62.4235 44.7174 62.4235 45.1291 62.4235V62.1765C45.1291 61.9294 45.0468 61.6823 44.9644 61.5176C44.8821 61.3529 44.635 61.2706 44.3879 61.2706C44.2232 61.2706 44.0585 61.2706 43.9762 61.3529C43.8938 61.3529 43.8115 61.4353 43.7291 61.5176C43.6468 61.6 43.5644 61.6 43.5644 61.6823C43.4821 61.6823 43.4821 61.7647 43.3997 61.7647C43.3174 61.7647 43.3174 61.7647 43.235 61.7647L43.1527 61.6823L42.9879 61.2706ZM45.1291 62.8353C44.7997 62.8353 44.5527 62.8353 44.3879 62.9176C44.1409 62.9176 43.9762 63 43.8938 63.0823C43.7291 63.1647 43.6468 63.2471 43.6468 63.3294C43.5644 63.4118 43.5644 63.4941 43.5644 63.5765C43.5644 63.6588 43.5644 63.7412 43.6468 63.8235C43.6468 63.9059 43.7291 63.9882 43.8115 63.9882C43.8938 64.0706 43.8938 64.0706 43.9762 64.0706C44.0585 64.0706 44.1409 64.0706 44.2232 64.0706C44.3056 64.0706 44.4703 64.0706 44.5527 64.0706C44.635 64.0706 44.7174 63.9882 44.7997 63.9882C44.8821 63.9882 44.9644 63.9059 45.0468 63.8235C45.1291 63.7412 45.2115 63.6588 45.2938 63.6588V62.8353H45.1291Z" fill="#231F20"/>
<path d="M48.2586 64.5647C47.9291 64.5647 47.6821 64.4823 47.5174 64.3176C47.3527 64.1529 47.2703 63.9059 47.2703 63.5765V61.2706H46.8586C46.7762 61.2706 46.7762 61.2706 46.7762 61.2706L46.6938 61.1882V60.8588L47.2703 60.7765L47.435 59.6235C47.435 59.5412 47.435 59.5412 47.5174 59.5412H47.5997H47.9291V60.7765H48.9997V61.2706H47.9291V63.4941C47.9291 63.6588 47.9291 63.7412 48.0115 63.8235C48.0938 63.9059 48.1762 63.9059 48.2586 63.9059C48.3409 63.9059 48.4233 63.9059 48.4233 63.9059C48.5056 63.9059 48.5056 63.9059 48.588 63.8235C48.588 63.8235 48.6703 63.8235 48.6703 63.7412H48.7527H48.835C48.835 63.7412 48.835 63.7412 48.9174 63.8235L49.1644 64.1529C49.0821 64.2353 48.9174 64.3176 48.7527 64.4C48.588 64.5647 48.4233 64.5647 48.2586 64.5647Z" fill="#231F20"/>
<path d="M50.7288 59.5412C50.7288 59.6235 50.7288 59.7059 50.7288 59.7059C50.7288 59.7882 50.6465 59.7882 50.6465 59.8706C50.5641 59.9529 50.5641 59.9529 50.4817 59.9529C50.3994 59.9529 50.317 59.9529 50.317 59.9529C50.2347 59.9529 50.1523 59.9529 50.1523 59.9529C50.07 59.9529 50.07 59.8706 49.9876 59.8706C49.9053 59.7882 49.9053 59.7882 49.9053 59.7059C49.9053 59.6235 49.9053 59.5412 49.9053 59.5412C49.9053 59.4588 49.9053 59.3765 49.9053 59.3765C49.9053 59.2941 49.9876 59.2941 49.9876 59.2118C50.07 59.1294 50.07 59.1294 50.1523 59.1294C50.2347 59.1294 50.2347 59.1294 50.317 59.1294C50.3994 59.1294 50.4817 59.1294 50.4817 59.1294C50.5641 59.1294 50.5641 59.2118 50.6465 59.2118C50.7288 59.2941 50.7288 59.2941 50.7288 59.3765C50.7288 59.4588 50.7288 59.5412 50.7288 59.5412ZM50.6465 60.7765V64.5647H49.9053V60.7765H50.6465Z" fill="#231F20"/>
<path d="M52.6233 61.2706C52.7057 61.1882 52.788 61.1059 52.8704 61.0235C52.9528 60.9412 53.0351 60.8588 53.1175 60.8588C53.1998 60.7765 53.3645 60.7765 53.4469 60.7765C53.5292 60.7765 53.6939 60.6941 53.8586 60.6941C54.1057 60.6941 54.2704 60.6941 54.4351 60.7765C54.5998 60.8588 54.7645 60.9412 54.8469 61.1059C54.9292 61.2706 55.0116 61.3529 55.0939 61.5176C55.1763 61.6823 55.1763 61.9294 55.1763 62.0941V64.4823H54.4351V62.0941C54.4351 61.8471 54.3528 61.6 54.2704 61.4353C54.1057 61.2706 53.941 61.1882 53.6939 61.1882C53.5292 61.1882 53.3645 61.2706 53.1998 61.3529C53.0351 61.4353 52.8704 61.6 52.788 61.6823V64.4823H52.0469V60.6941H52.4586C52.541 60.6941 52.6233 60.7765 52.6233 60.8588V61.2706Z" fill="#231F20"/>
<path d="M59.6234 60.8588V61.1059C59.6234 61.1882 59.541 61.2706 59.4587 61.2706L59.0469 61.3529C59.0469 61.4353 59.1293 61.5176 59.1293 61.6C59.1293 61.6823 59.1293 61.7647 59.1293 61.847C59.1293 62.0118 59.1293 62.1765 59.0469 62.3412C58.9646 62.5059 58.8822 62.5882 58.7175 62.7529C58.5528 62.8353 58.4704 62.9176 58.3057 63C58.141 63.0823 57.9763 63.0823 57.7293 63.0823C57.5646 63.0823 57.3998 63.0823 57.2351 63C57.1528 63.0823 57.0704 63.0823 57.0704 63.1647C57.0704 63.247 56.9881 63.2471 56.9881 63.3294C56.9881 63.4118 56.9881 63.4941 57.0704 63.4941C57.1528 63.4941 57.2351 63.5765 57.3175 63.5765C57.3998 63.5765 57.5646 63.5765 57.7293 63.5765C57.894 63.5765 58.0587 63.5765 58.2234 63.5765C58.3881 63.5765 58.5528 63.5765 58.7175 63.6588C58.8822 63.6588 58.9646 63.7412 59.1293 63.8235C59.2116 63.9059 59.3763 63.9882 59.3763 64.0706C59.4587 64.1529 59.4587 64.3176 59.4587 64.4823C59.4587 64.6471 59.4587 64.8118 59.3763 64.9765C59.294 65.1412 59.2116 65.3059 59.0469 65.3882C58.8822 65.4706 58.7175 65.6353 58.4704 65.6353C58.3057 65.8823 58.0587 65.8823 57.8116 65.8823C57.5646 65.8823 57.3175 65.8823 57.0704 65.8C56.8234 65.7176 56.6587 65.6353 56.5763 65.5529C56.4116 65.4706 56.3293 65.3882 56.2469 65.2235C56.1646 65.1412 56.1646 64.9765 56.1646 64.8118C56.1646 64.647 56.2469 64.4823 56.3293 64.3176C56.4116 64.1529 56.5763 64.0706 56.8234 63.9882C56.741 63.9059 56.6587 63.9059 56.5763 63.8235C56.494 63.7412 56.494 63.6588 56.494 63.4941C56.494 63.4118 56.494 63.4118 56.494 63.3294C56.494 63.2471 56.5763 63.247 56.5763 63.1647C56.5763 63.0823 56.6587 63.0823 56.741 63C56.8234 62.9176 56.9057 62.9176 56.9881 62.8353C56.8234 62.7529 56.6587 62.5882 56.5763 62.4235C56.494 62.2588 56.4116 62.0118 56.4116 61.847C56.4116 61.6823 56.4116 61.5176 56.494 61.3529C56.5763 61.1882 56.6587 61.1059 56.8234 60.9412C56.9881 60.8588 57.0704 60.7765 57.3175 60.6941C57.4822 60.6118 57.7293 60.6118 57.894 60.6118C58.2234 60.6118 58.4704 60.6941 58.7175 60.7765H59.6234V60.8588ZM58.8822 64.7294C58.8822 64.647 58.8822 64.5647 58.7998 64.4823C58.7175 64.4 58.7175 64.4 58.6351 64.3176C58.5528 64.3176 58.4704 64.2353 58.3057 64.2353C58.2234 64.2353 58.0587 64.2353 57.9763 64.2353C57.8116 64.2353 57.7293 64.2353 57.5646 64.2353C57.3998 64.2353 57.3175 64.2353 57.1528 64.2353C56.9881 64.3176 56.9057 64.4 56.8234 64.4823C56.741 64.5647 56.6587 64.647 56.6587 64.8118C56.6587 64.8941 56.6587 64.9765 56.741 65.0588C56.741 65.1412 56.8234 65.2235 56.9057 65.2235C56.9881 65.3059 57.0704 65.3059 57.2351 65.3059C57.3998 65.3059 57.4822 65.3882 57.7293 65.3882C57.894 65.3882 58.0587 65.3882 58.2234 65.3059C58.3881 65.3059 58.4704 65.2235 58.5528 65.1412C58.6351 65.0588 58.7175 65.0588 58.7998 64.9765C58.8822 64.8941 58.8822 64.8118 58.8822 64.7294ZM57.7293 62.6706C57.894 62.6706 57.9763 62.6706 58.0587 62.5882C58.141 62.5882 58.2234 62.5059 58.3057 62.4235C58.3881 62.3412 58.3881 62.2588 58.4704 62.1765C58.4704 62.0941 58.5528 62.0118 58.5528 61.847C58.5528 61.6 58.4704 61.4353 58.3881 61.3529C58.2234 61.1882 58.0587 61.1882 57.8116 61.1882C57.5646 61.1882 57.3998 61.2706 57.2351 61.3529C57.0704 61.5176 57.0704 61.6823 57.0704 61.847C57.0704 61.9294 57.0704 62.0118 57.1528 62.1765C57.1528 62.2588 57.2351 62.3412 57.3175 62.4235C57.3998 62.5059 57.4822 62.5059 57.5646 62.5882C57.4822 62.5882 57.6469 62.6706 57.7293 62.6706Z" fill="#231F20"/>
<path d="M64.3997 60.6941C64.6467 60.6941 64.8938 60.7765 65.1408 60.8588C65.3879 60.9412 65.5526 61.1059 65.7173 61.2706C65.882 61.4353 65.9644 61.6823 66.0467 61.847C66.1291 62.0941 66.2114 62.3412 66.2114 62.6706C66.2114 63 66.1291 63.247 66.0467 63.4941C65.9644 63.7412 65.882 63.9059 65.7173 64.0706C65.5526 64.2353 65.3879 64.4 65.1408 64.4823C64.8938 64.5647 64.6467 64.6471 64.3997 64.6471C64.1526 64.6471 63.9055 64.5647 63.6585 64.4823C63.4114 64.4 63.2467 64.2353 63.082 64.0706C62.9173 63.9059 62.8349 63.6588 62.7526 63.4941C62.6702 63.247 62.5879 63 62.5879 62.6706C62.5879 62.3412 62.6702 62.0941 62.7526 61.847C62.8349 61.6 62.9997 61.4353 63.082 61.2706C63.2467 61.1059 63.4114 60.9412 63.6585 60.8588C63.9055 60.6941 64.1526 60.6941 64.3997 60.6941ZM64.3997 63.9882C64.7291 63.9882 65.0585 63.9059 65.2232 63.6588C65.3879 63.4118 65.4702 63.0823 65.4702 62.6706C65.4702 62.2588 65.3879 61.9294 65.2232 61.6823C65.0585 61.4353 64.8114 61.3529 64.3997 61.3529C64.0702 61.3529 63.7408 61.4353 63.5761 61.6823C63.4114 61.9294 63.3291 62.2588 63.3291 62.6706C63.3291 63.0823 63.4114 63.4118 63.5761 63.6588C63.7408 63.9059 64.0702 63.9882 64.3997 63.9882Z" fill="#231F20"/>
<path d="M68.0232 61.3529C68.1056 61.2706 68.188 61.1882 68.2703 61.1059C68.3527 61.0235 68.435 60.9412 68.5997 60.9412C68.6821 60.8588 68.8468 60.8588 68.9291 60.7765C69.0115 60.7765 69.1762 60.6941 69.3409 60.6941C69.5879 60.6941 69.7527 60.7765 69.9174 60.8588C70.0821 60.9412 70.2468 61.1059 70.3291 61.2706C70.4938 61.4353 70.5762 61.6 70.6585 61.847C70.7409 62.0941 70.7409 62.3412 70.7409 62.6706C70.7409 62.9176 70.7409 63.2471 70.6585 63.4118C70.5762 63.6588 70.4938 63.8235 70.3291 64.0706C70.1644 64.2353 69.9997 64.4 69.835 64.4823C69.6703 64.5647 69.4232 64.6471 69.1762 64.6471C68.9291 64.6471 68.7644 64.6471 68.5997 64.5647C68.435 64.4823 68.2703 64.4 68.188 64.2353V65.8823H67.4468V60.8588H67.8585C67.9409 60.8588 68.0232 60.9412 68.0232 61.0235V61.3529ZM68.1056 63.5765C68.188 63.7412 68.3527 63.8235 68.5174 63.9059C68.6821 63.9882 68.8468 63.9882 69.0115 63.9882C69.3409 63.9882 69.5879 63.9059 69.7527 63.6588C69.835 63.4118 69.9997 63.0823 69.9997 62.5882C69.9997 62.3412 69.9997 62.1765 69.9174 62.0118C69.9174 61.8471 69.835 61.6823 69.7527 61.6C69.6703 61.5176 69.588 61.4353 69.4232 61.3529C69.3409 61.2706 69.1762 61.2706 69.0115 61.2706C68.7644 61.2706 68.5997 61.3529 68.435 61.4353C68.2703 61.5176 68.1056 61.6823 68.0232 61.847V63.5765H68.1056Z" fill="#231F20"/>
<path d="M72.5525 61.3529C72.6349 61.2706 72.7173 61.1882 72.7996 61.1059C72.882 61.0235 72.9643 60.9412 73.129 60.9412C73.2114 60.8588 73.3761 60.8588 73.4584 60.7765C73.5408 60.7765 73.7055 60.6941 73.8702 60.6941C74.1172 60.6941 74.282 60.7765 74.4467 60.8588C74.6114 60.9412 74.7761 61.1059 74.8584 61.2706C75.0231 61.4353 75.1055 61.6 75.1878 61.847C75.2702 62.0941 75.2702 62.3412 75.2702 62.6706C75.2702 62.9176 75.2702 63.2471 75.1878 63.4118C75.1055 63.6588 75.0231 63.8235 74.8584 64.0706C74.6937 64.2353 74.529 64.4 74.3643 64.4823C74.1996 64.5647 73.9525 64.6471 73.7055 64.6471C73.4584 64.6471 73.2937 64.6471 73.129 64.5647C72.9643 64.4823 72.7996 64.4 72.7173 64.2353V65.8823H71.9761V60.8588H72.3878C72.4702 60.8588 72.5525 60.9412 72.5525 61.0235V61.3529ZM72.5525 63.5765C72.6349 63.7412 72.7996 63.8235 72.9643 63.9059C73.129 63.9882 73.2937 63.9882 73.4584 63.9882C73.7878 63.9882 74.0349 63.9059 74.1996 63.6588C74.3643 63.4118 74.4467 63.0823 74.4467 62.5882C74.4467 62.3412 74.4467 62.1765 74.3643 62.0118C74.3643 61.8471 74.282 61.6823 74.1996 61.6C74.1172 61.5176 74.0349 61.4353 73.8702 61.3529C73.7878 61.2706 73.6231 61.2706 73.4584 61.2706C73.2114 61.2706 73.0467 61.3529 72.882 61.4353C72.7172 61.5176 72.5525 61.6823 72.4702 61.847V63.5765H72.5525Z" fill="#231F20"/>
<path d="M77.9055 60.6941C78.1526 60.6941 78.3996 60.7765 78.6467 60.8588C78.8937 60.9412 79.0585 61.1059 79.2232 61.2706C79.3879 61.4353 79.4702 61.6823 79.5526 61.847C79.6349 62.0941 79.7173 62.3412 79.7173 62.6706C79.7173 63 79.6349 63.247 79.5526 63.4941C79.4702 63.7412 79.3879 63.9059 79.2232 64.0706C79.0585 64.2353 78.8937 64.4 78.6467 64.4823C78.3996 64.5647 78.1526 64.6471 77.9055 64.6471C77.6585 64.6471 77.4114 64.5647 77.1643 64.4823C76.9173 64.4 76.7526 64.2353 76.5879 64.0706C76.4232 63.9059 76.3408 63.6588 76.2585 63.4941C76.1761 63.247 76.0938 63 76.0938 62.6706C76.0938 62.3412 76.1761 62.0941 76.2585 61.847C76.3408 61.6 76.5055 61.4353 76.5879 61.2706C76.7526 61.1059 76.9173 60.9412 77.1643 60.8588C77.4114 60.6941 77.6585 60.6941 77.9055 60.6941ZM77.9055 63.9882C78.2349 63.9882 78.5643 63.9059 78.729 63.6588C78.8937 63.4118 78.9761 63.0823 78.9761 62.6706C78.9761 62.2588 78.8937 61.9294 78.729 61.6823C78.5643 61.4353 78.3173 61.3529 77.9055 61.3529C77.5761 61.3529 77.2467 61.4353 77.082 61.6823C76.9173 61.9294 76.8349 62.2588 76.8349 62.6706C76.8349 63.0823 76.9173 63.4118 77.082 63.6588C77.329 63.9059 77.5761 63.9882 77.9055 63.9882Z" fill="#231F20"/>
<path d="M81.5293 61.4353C81.6116 61.1882 81.7763 61.0235 81.941 60.8588C82.1057 60.6941 82.3528 60.6118 82.5999 60.6118C82.6822 60.6118 82.7646 60.6118 82.8469 60.6118C82.9293 60.6118 83.0116 60.6941 83.0116 60.6941L82.9293 61.2706C82.9293 61.3529 82.8469 61.3529 82.8469 61.3529C82.8469 61.3529 82.7646 61.3529 82.6822 61.3529C82.5999 61.3529 82.5175 61.3529 82.4351 61.3529C82.3528 61.3529 82.1881 61.3529 82.1057 61.4353C82.0234 61.4353 81.941 61.5176 81.8587 61.6C81.7763 61.6823 81.694 61.7647 81.694 61.847C81.6116 61.9294 81.6116 62.0118 81.5293 62.1765V64.5647H80.7881V60.7765H81.1999C81.2822 60.7765 81.3646 60.7765 81.3646 60.8588C81.3646 60.8588 81.4469 60.9412 81.4469 61.0235L81.5293 61.4353Z" fill="#231F20"/>
<path d="M85.0701 64.5647C84.7407 64.5647 84.4936 64.4823 84.3289 64.3176C84.1642 64.1529 84.0818 63.9059 84.0818 63.5765V61.2706H83.6701C83.5877 61.2706 83.5877 61.2706 83.5877 61.2706L83.5054 61.1882V60.8588L84.0818 60.7765L84.2465 59.6235C84.2465 59.5412 84.2465 59.5412 84.3289 59.5412H84.4113H84.7407V60.7765H85.8112V61.2706H84.823V63.4941C84.823 63.6588 84.823 63.7412 84.9054 63.8235C84.9877 63.9059 85.0701 63.9059 85.1524 63.9059C85.2348 63.9059 85.3171 63.9059 85.3171 63.9059C85.3995 63.9059 85.3995 63.9059 85.4818 63.8235C85.4818 63.8235 85.5642 63.8235 85.5642 63.7412H85.6465H85.7289C85.7289 63.7412 85.7289 63.7412 85.8112 63.8235L86.0583 64.1529C85.976 64.2353 85.8113 64.3176 85.6465 64.4C85.3995 64.5647 85.2348 64.5647 85.0701 64.5647Z" fill="#231F20"/>
<path d="M90.0113 60.7765V64.5647H89.5995C89.5171 64.5647 89.4348 64.4823 89.4348 64.4L89.3524 63.9882C89.2701 64.0706 89.1877 64.1529 89.1054 64.2353C89.023 64.3176 88.9407 64.4 88.8583 64.4C88.776 64.4823 88.6112 64.4823 88.5289 64.4823C88.4465 64.4823 88.2818 64.5647 88.1995 64.5647C87.9524 64.5647 87.7877 64.5647 87.623 64.4823C87.4583 64.4 87.2936 64.3176 87.2112 64.1529C87.1289 63.9882 87.0465 63.9059 86.9642 63.7412C86.8818 63.5765 86.8818 63.3294 86.8818 63.1647V60.7765H87.623V63.1647C87.623 63.4118 87.7054 63.6588 87.7877 63.8235C87.9524 63.9882 88.1171 64.0706 88.3642 64.0706C88.5289 64.0706 88.6936 63.9882 88.8583 63.9059C89.023 63.8235 89.1877 63.6588 89.3524 63.5765V60.7765H90.0113Z" fill="#231F20"/>
<path d="M92.0701 61.2706C92.1525 61.1882 92.2348 61.1059 92.3172 61.0235C92.3995 60.9412 92.4819 60.8588 92.5642 60.8588C92.6466 60.7765 92.8113 60.7765 92.8937 60.7765C92.976 60.7765 93.1407 60.6941 93.3054 60.6941C93.5525 60.6941 93.7172 60.6941 93.8819 60.7765C94.0466 60.8588 94.2113 60.9412 94.2937 61.1059C94.376 61.2706 94.4584 61.3529 94.5407 61.5176C94.6231 61.6823 94.6231 61.9294 94.6231 62.0941V64.4823H93.8819V62.0941C93.8819 61.8471 93.7995 61.6 93.7172 61.4353C93.5525 61.2706 93.3878 61.1882 93.1407 61.1882C92.976 61.1882 92.8113 61.2706 92.6466 61.3529C92.4819 61.4353 92.3172 61.6 92.2348 61.6823V64.4823H91.4937V60.6941H91.9054C91.9878 60.6941 92.0701 60.7765 92.0701 60.8588V61.2706Z" fill="#231F20"/>
<path d="M96.6819 59.5412C96.6819 59.6235 96.6819 59.7059 96.6819 59.7059C96.6819 59.7882 96.5996 59.7882 96.5996 59.8706C96.5172 59.9529 96.5172 59.9529 96.4349 59.9529C96.3525 59.9529 96.2702 59.9529 96.2702 59.9529C96.1878 59.9529 96.1055 59.9529 96.1055 59.9529C96.0231 59.9529 96.0231 59.8706 95.9408 59.8706C95.8584 59.7882 95.8584 59.7882 95.8584 59.7059C95.8584 59.6235 95.8584 59.5412 95.8584 59.5412C95.8584 59.4588 95.8584 59.3765 95.8584 59.3765C95.8584 59.2941 95.9408 59.2941 95.9408 59.2118C96.0231 59.1294 96.0231 59.1294 96.1055 59.1294C96.1878 59.1294 96.1878 59.1294 96.2702 59.1294C96.3525 59.1294 96.4349 59.1294 96.4349 59.1294C96.5172 59.1294 96.5172 59.2118 96.5996 59.2118C96.6819 59.2941 96.6819 59.2941 96.6819 59.3765C96.6819 59.4588 96.6819 59.5412 96.6819 59.5412ZM96.5996 60.7765V64.5647H95.8584V60.7765H96.5996Z" fill="#231F20"/>
<path d="M99.1526 64.5647C98.8232 64.5647 98.5761 64.4823 98.4114 64.3176C98.2467 64.1529 98.1644 63.9059 98.1644 63.5765V61.2706H97.7526C97.6702 61.2706 97.6702 61.2706 97.6702 61.2706L97.5879 61.1882V60.8588L98.1644 60.7765L98.3291 59.6235C98.3291 59.5412 98.3291 59.5412 98.4114 59.5412H98.4938H98.8232V60.7765H99.8938V61.2706H98.8232V63.4941C98.8232 63.6588 98.8232 63.7412 98.9055 63.8235C98.9879 63.9059 99.0702 63.9059 99.1526 63.9059C99.235 63.9059 99.3173 63.9059 99.3173 63.9059C99.3997 63.9059 99.3997 63.9059 99.482 63.8235C99.482 63.8235 99.5644 63.8235 99.5644 63.7412H99.6467H99.7291C99.7291 63.7412 99.7291 63.7412 99.8114 63.8235L100.058 64.1529C99.9761 64.2353 99.8114 64.3176 99.6467 64.4C99.482 64.5647 99.3173 64.5647 99.1526 64.5647Z" fill="#231F20"/>
<path d="M101.623 59.5412C101.623 59.6235 101.623 59.7059 101.623 59.7059C101.623 59.7882 101.541 59.7882 101.541 59.8706C101.458 59.9529 101.458 59.9529 101.376 59.9529C101.294 59.9529 101.211 59.9529 101.211 59.9529C101.129 59.9529 101.047 59.9529 101.047 59.9529C100.964 59.9529 100.964 59.8706 100.882 59.8706C100.8 59.7882 100.8 59.7882 100.8 59.7059C100.8 59.6235 100.8 59.5412 100.8 59.5412C100.8 59.4588 100.8 59.3765 100.8 59.3765C100.8 59.2941 100.882 59.2941 100.882 59.2118C100.964 59.1294 100.964 59.1294 101.047 59.1294C101.129 59.1294 101.129 59.1294 101.211 59.1294C101.294 59.1294 101.376 59.1294 101.376 59.1294C101.458 59.1294 101.458 59.2118 101.541 59.2118C101.623 59.2941 101.623 59.2941 101.623 59.3765C101.623 59.4588 101.623 59.5412 101.623 59.5412ZM101.458 60.7765V64.5647H100.717V60.7765H101.458Z" fill="#231F20"/>
<path d="M105.988 63.9882C105.905 64.0706 105.823 64.1529 105.658 64.2353C105.576 64.3176 105.411 64.4 105.246 64.4C105.082 64.4823 104.999 64.4823 104.835 64.4823C104.67 64.4823 104.588 64.4823 104.423 64.4823C104.176 64.4823 103.929 64.4 103.682 64.3176C103.435 64.2353 103.27 64.0706 103.105 63.9059C102.941 63.7412 102.776 63.4941 102.694 63.2471C102.611 63 102.529 62.6706 102.529 62.3412C102.529 62.0941 102.529 61.8471 102.611 61.6C102.694 61.3529 102.776 61.1882 102.941 61.0235C103.105 60.8588 103.27 60.6941 103.517 60.6118C103.764 60.5294 104.011 60.4471 104.258 60.4471C104.505 60.4471 104.67 60.4471 104.917 60.5294C105.082 60.6118 105.246 60.6941 105.411 60.8588C105.576 61.0235 105.658 61.1882 105.741 61.3529C105.823 61.6 105.823 61.7647 105.823 62.0941C105.823 62.1765 105.823 62.2588 105.823 62.3412C105.823 62.3412 105.741 62.4235 105.658 62.4235H103.188C103.188 62.6706 103.188 62.8353 103.27 63C103.352 63.1647 103.435 63.3294 103.517 63.4118C103.599 63.4941 103.764 63.5765 103.846 63.6588C104.011 63.7412 104.176 63.7412 104.341 63.7412C104.505 63.7412 104.67 63.7412 104.752 63.6588C104.835 63.6588 104.999 63.5765 105.082 63.5765C105.164 63.4941 105.246 63.4941 105.329 63.4941C105.411 63.4941 105.411 63.4118 105.494 63.4118C105.576 63.4118 105.576 63.4118 105.658 63.4941L105.988 63.9882ZM105.329 62.2588C105.329 62.0941 105.329 62.0118 105.246 61.847C105.246 61.7647 105.164 61.6 105.082 61.5176C104.999 61.4353 104.917 61.3529 104.752 61.2706C104.67 61.1882 104.505 61.1882 104.341 61.1882C104.011 61.1882 103.764 61.2706 103.599 61.4353C103.435 61.6 103.352 61.8471 103.27 62.1765H105.329V62.2588Z" fill="#231F20"/>
<path d="M109.282 61.4353C109.199 61.5176 109.199 61.5176 109.117 61.5176C109.117 61.5176 109.035 61.5176 108.952 61.5176C108.87 61.5176 108.87 61.4353 108.788 61.4353C108.705 61.4353 108.623 61.3529 108.541 61.3529C108.458 61.3529 108.376 61.3529 108.211 61.3529C108.129 61.3529 108.046 61.3529 107.964 61.3529C107.882 61.3529 107.799 61.4353 107.717 61.4353C107.635 61.5176 107.635 61.5176 107.552 61.6C107.552 61.6823 107.47 61.7647 107.47 61.7647C107.47 61.8471 107.47 61.9294 107.552 62.0118C107.635 62.0941 107.717 62.0941 107.799 62.1765C107.882 62.2588 107.964 62.2588 108.129 62.2588C108.211 62.2588 108.376 62.3412 108.458 62.3412C108.541 62.3412 108.705 62.4235 108.788 62.5059C108.87 62.5882 109.035 62.5882 109.117 62.6706C109.199 62.7529 109.282 62.8353 109.364 62.9176C109.446 63 109.446 63.1647 109.446 63.3294C109.446 63.4941 109.446 63.6588 109.364 63.8235C109.282 63.9882 109.199 64.0706 109.117 64.2353C109.035 64.3176 108.87 64.4 108.623 64.4823C108.458 64.5647 108.211 64.5647 107.964 64.5647C107.717 64.5647 107.47 64.4823 107.223 64.4C106.976 64.3176 106.811 64.2353 106.646 64.0706L106.811 63.8235L106.894 63.7412H106.976C107.058 63.7412 107.058 63.7412 107.141 63.8235C107.223 63.8235 107.223 63.9059 107.305 63.9059C107.388 63.9059 107.47 63.9882 107.552 63.9882C107.635 63.9882 107.799 64.0706 107.964 64.0706C108.129 64.0706 108.211 64.0706 108.294 63.9882C108.376 63.9882 108.458 63.9059 108.541 63.8235C108.623 63.7412 108.623 63.7412 108.705 63.6588C108.705 63.5765 108.788 63.4941 108.788 63.4118C108.788 63.3294 108.788 63.247 108.705 63.1647C108.623 63.0823 108.541 63.0823 108.458 63C108.376 62.9176 108.294 62.9176 108.129 62.9176C108.046 62.9176 107.882 62.8353 107.799 62.8353C107.717 62.8353 107.552 62.7529 107.47 62.6706C107.388 62.5882 107.223 62.5882 107.141 62.5059C107.058 62.4235 106.976 62.3412 106.894 62.1765C106.811 62.0941 106.811 61.9294 106.811 61.7647C106.811 61.6 106.811 61.5176 106.894 61.3529C106.976 61.1882 107.058 61.1059 107.141 61.0235C107.223 60.9412 107.388 60.8588 107.552 60.7765C107.717 60.6941 107.882 60.6941 108.129 60.6941C108.376 60.6941 108.623 60.6941 108.788 60.7765C108.952 60.8588 109.199 60.9412 109.282 61.1059V61.4353Z" fill="#231F20"/>
<path d="M13.7527 47.2706V48.0118H11.6115V53.7765H10.7056V48.0118H8.56445V47.2706H13.7527Z" fill="#58595B"/>
<path d="M21.6586 53.7765H20.7527V50.8118H17.2115V53.7765H16.3057V47.2706H17.2115V50.1529H20.7527V47.2706H21.6586V53.7765Z" fill="#58595B"/>
<path d="M28.9054 47.2706V48.0118H25.776V50.1529H28.3289V50.8118H25.776V53.0353H28.9054V53.7765H24.8701V47.2706H28.9054Z" fill="#58595B"/>
<path d="M36.1525 51.3882V53.8588H35.2466V47.3529H37.1407C37.5525 47.3529 37.8819 47.4353 38.2113 47.5176C38.5407 47.6 38.7878 47.7647 38.9525 47.9294C39.1172 48.0941 39.2819 48.3412 39.3642 48.5882C39.4466 48.8353 39.5289 49.0823 39.5289 49.4118C39.5289 49.7412 39.4466 49.9882 39.3642 50.2353C39.2819 50.4823 39.1172 50.7294 38.8701 50.8941C38.7054 51.0588 38.376 51.2235 38.1289 51.3059C37.7995 51.3882 37.4701 51.4706 37.0583 51.4706H36.1525V51.3882ZM36.1525 50.6471H37.2231C37.4701 50.6471 37.7172 50.6471 37.8819 50.5647C38.0466 50.4823 38.2113 50.4 38.376 50.3176C38.5407 50.2353 38.6231 50.0706 38.7054 49.9059C38.7878 49.7412 38.7878 49.5765 38.7878 49.3294C38.7878 48.9176 38.6231 48.5882 38.376 48.3412C38.1289 48.0941 37.7172 48.0118 37.2231 48.0118H36.1525V50.6471Z" fill="#58595B"/>
<path d="M48.423 50.5647C48.423 51.0588 48.3407 51.4706 48.176 51.8823C48.0113 52.2941 47.7642 52.6235 47.5172 52.9529C47.2701 53.2824 46.8583 53.4471 46.5289 53.6118C46.1172 53.7765 45.7054 53.8588 45.2113 53.8588C44.7172 53.8588 44.3054 53.7765 43.8936 53.6118C43.4819 53.4471 43.1525 53.2 42.9054 52.9529C42.6583 52.6235 42.4113 52.2941 42.2466 51.8823C42.0819 51.4706 41.9995 51.0588 41.9995 50.5647C41.9995 50.0706 42.0819 49.6588 42.2466 49.2471C42.4113 48.8353 42.6583 48.5059 42.9054 48.1765C43.1525 47.8471 43.5642 47.6823 43.8936 47.5176C44.3054 47.3529 44.7172 47.2706 45.2113 47.2706C45.7054 47.2706 46.1172 47.3529 46.5289 47.5176C46.9407 47.6823 47.2701 47.9294 47.5172 48.1765C47.7642 48.5059 48.0113 48.8353 48.176 49.2471C48.3407 49.5765 48.423 50.0706 48.423 50.5647ZM47.5172 50.5647C47.5172 50.1529 47.4348 49.8235 47.3525 49.4941C47.2701 49.1647 47.1054 48.9176 46.8583 48.6706C46.6936 48.4235 46.4466 48.2588 46.1172 48.1765C45.8701 48.0941 45.5407 48.0118 45.1289 48.0118C44.7995 48.0118 44.4701 48.0941 44.1407 48.1765C43.8936 48.2588 43.6466 48.4235 43.3995 48.6706C43.2348 48.9176 43.0701 49.1647 42.9054 49.4941C42.823 49.8235 42.7407 50.1529 42.7407 50.5647C42.7407 50.9765 42.823 51.3059 42.9054 51.6353C42.9877 51.9647 43.1525 52.2118 43.3995 52.4588C43.5642 52.7059 43.8113 52.8706 44.1407 52.9529C44.3877 53.0353 44.7172 53.1176 45.1289 53.1176C45.4583 53.1176 45.7877 53.0353 46.1172 52.9529C46.3642 52.8706 46.6113 52.7059 46.8583 52.4588C47.023 52.2118 47.1877 51.9647 47.3525 51.6353C47.5172 51.3059 47.5172 50.9765 47.5172 50.5647Z" fill="#58595B"/>
<path d="M52.2115 51.0588V53.7765H51.3057V47.2706H53.1174C53.5292 47.2706 53.8586 47.3529 54.188 47.4353C54.5174 47.5176 54.7645 47.6 54.9292 47.7647C55.0939 47.9294 55.2586 48.0941 55.341 48.3412C55.4233 48.5882 55.5057 48.8353 55.5057 49.0823C55.5057 49.3294 55.5057 49.4941 55.4233 49.7412C55.341 49.9059 55.2586 50.1529 55.0939 50.3176C54.9292 50.4823 54.7645 50.6471 54.5998 50.7294C54.4351 50.8118 54.188 50.8941 53.941 50.9765C54.0233 51.0588 54.188 51.1412 54.2704 51.2235L56.1645 53.7765H55.341C55.1763 53.7765 55.0939 53.6941 55.0115 53.6118L53.2821 51.3059C53.1998 51.2235 53.1998 51.1412 53.1174 51.1412C53.0351 51.1412 52.9527 51.0588 52.8704 51.0588H52.2115ZM52.2115 50.4823H53.1174C53.3645 50.4823 53.6115 50.4823 53.7763 50.4C53.941 50.3176 54.1057 50.2353 54.2704 50.1529C54.4351 50.0706 54.5174 49.9059 54.5998 49.7412C54.6821 49.5765 54.6821 49.4118 54.6821 49.2471C54.6821 48.8353 54.5174 48.5882 54.2704 48.3412C54.0233 48.1765 53.6115 48.0118 53.1174 48.0118H52.1292V50.4823H52.2115Z" fill="#58595B"/>
<path d="M62.9998 47.2706V48.0118H60.8586V53.7765H59.9527V48.0118H57.8115V47.2706H62.9998Z" fill="#58595B"/>
<path d="M72.3058 48.3412C72.3058 48.4235 72.2235 48.4235 72.2235 48.4235H72.1411C72.0588 48.4235 72.0588 48.4235 71.9764 48.3412C71.8941 48.2588 71.8117 48.2588 71.7293 48.1765C71.647 48.0941 71.4823 48.0941 71.3176 48.0118C71.1529 47.9294 70.9882 47.9294 70.8235 47.9294C70.6588 47.9294 70.4117 47.9294 70.3293 48.0118C70.1646 48.0941 70.0823 48.1765 69.9176 48.2588C69.8352 48.3412 69.7529 48.4235 69.6705 48.5882C69.5882 48.6706 69.5882 48.8353 69.5882 49C69.5882 49.1647 69.6705 49.3294 69.7529 49.4941C69.8352 49.5765 69.9999 49.7412 70.0823 49.8235C70.1646 49.9059 70.4117 49.9882 70.5764 50.0706C70.7411 50.1529 70.9882 50.2353 71.1529 50.2353C71.3176 50.3176 71.5646 50.4 71.7293 50.4823C71.8941 50.5647 72.0588 50.6471 72.2235 50.8118C72.3882 50.9765 72.4705 51.0588 72.5529 51.3059C72.6352 51.4706 72.7176 51.7176 72.7176 51.9647C72.7176 52.2118 72.6352 52.5412 72.5529 52.7882C72.4705 53.0353 72.3058 53.2824 72.1411 53.4471C71.9764 53.6118 71.7293 53.7765 71.4823 53.8588C71.2352 53.9412 70.9058 54.0235 70.5764 54.0235C70.1646 54.0235 69.7529 53.9412 69.4235 53.7765C69.0941 53.6118 68.7646 53.4471 68.5176 53.1176L68.7646 52.7059L68.847 52.6235H68.9293C69.0117 52.6235 69.0941 52.6235 69.1764 52.7059C69.2588 52.7882 69.3411 52.8706 69.5058 52.9529C69.5882 53.0353 69.7529 53.1176 69.9176 53.2C70.0823 53.2823 70.3293 53.2823 70.5764 53.2823C70.8235 53.2823 70.9882 53.2823 71.1529 53.2C71.3176 53.1176 71.4823 53.0353 71.5646 52.9529C71.647 52.8706 71.7293 52.7059 71.8117 52.5412C71.894 52.3765 71.8941 52.2118 71.8941 52.0471C71.8941 51.8824 71.8117 51.7176 71.7293 51.5529C71.647 51.3882 71.4823 51.3059 71.3999 51.2235C71.2352 51.1412 71.0705 51.0588 70.9058 50.9765C70.7411 50.8941 70.4941 50.8941 70.3293 50.8118C70.1646 50.7294 69.9176 50.6471 69.7529 50.5647C69.5882 50.4824 69.4235 50.4 69.2588 50.2353C69.094 50.0706 69.0117 49.9059 68.9293 49.7412C68.847 49.5765 68.7646 49.3294 68.7646 49C68.7646 48.7529 68.847 48.5059 68.9293 48.3412C69.0117 48.0941 69.1764 47.9294 69.3411 47.7647C69.5058 47.6 69.7529 47.4353 69.9999 47.3529C70.247 47.2706 70.5764 47.1882 70.8235 47.1882C71.1529 47.1882 71.4823 47.2706 71.8117 47.3529C72.1411 47.4353 72.3882 47.6 72.6352 47.8471L72.3058 48.3412Z" fill="#58595B"/>
<path d="M76.3409 51.3882V53.8588H75.4351V47.3529H77.4115C77.8233 47.3529 78.1527 47.4353 78.4821 47.5176C78.8115 47.6 79.0586 47.7647 79.2233 47.9294C79.388 48.0941 79.5527 48.3412 79.6351 48.5882C79.7174 48.8353 79.7998 49.0823 79.7998 49.4118C79.7998 49.7412 79.7174 49.9882 79.6351 50.2353C79.5527 50.4823 79.388 50.7294 79.1409 50.8941C78.9762 51.0588 78.6468 51.2235 78.3998 51.3059C78.0704 51.3882 77.7409 51.4706 77.3292 51.4706H76.3409V51.3882ZM76.3409 50.6471H77.4115C77.6586 50.6471 77.9057 50.6471 78.0704 50.5647C78.2351 50.4823 78.3998 50.4 78.5645 50.3176C78.7292 50.2353 78.8115 50.0706 78.8939 49.9059C78.9762 49.7412 78.9762 49.5765 78.9762 49.3294C78.9762 48.9176 78.8115 48.5882 78.5645 48.3412C78.3174 48.0941 77.9056 48.0118 77.4115 48.0118H76.3409V50.6471Z" fill="#58595B"/>
<path d="M86.6349 47.2706V48.0118H83.5055V50.1529H86.0584V50.8118H83.5055V53.0353H86.6349V53.7765H82.5996V47.2706H86.6349Z" fill="#58595B"/>
<path d="M94.1293 52.4588C94.2117 52.4588 94.2117 52.4588 94.294 52.5412L94.6234 52.9529C94.3764 53.2824 94.047 53.5294 93.6352 53.6941C93.2234 53.8588 92.8117 53.9412 92.2352 53.9412C91.7411 53.9412 91.3293 53.8588 90.9176 53.6941C90.5058 53.5294 90.1764 53.2823 89.9293 53.0353C89.6823 52.7059 89.4352 52.3765 89.2705 51.9647C89.1058 51.5529 89.0234 51.1412 89.0234 50.6471C89.0234 50.1529 89.1058 49.7412 89.2705 49.3294C89.4352 48.9176 89.6823 48.5882 89.9293 48.2588C90.2587 47.9294 90.5881 47.7647 90.9999 47.6C91.4117 47.4353 91.8234 47.3529 92.3176 47.3529C92.8117 47.3529 93.2234 47.4353 93.5528 47.6C93.8823 47.7647 94.2117 47.9294 94.4587 48.1765L94.2117 48.5882L94.1293 48.6706H94.047C94.047 48.6706 93.9646 48.6706 93.8823 48.5882C93.7999 48.5882 93.7999 48.5059 93.7176 48.5059C93.6352 48.4235 93.5529 48.4235 93.4705 48.3412C93.3881 48.2588 93.3058 48.2588 93.1411 48.1765C93.0587 48.0941 92.894 48.0941 92.7293 48.0941C92.5646 48.0941 92.3999 48.0118 92.2352 48.0118C91.9058 48.0118 91.5764 48.0941 91.247 48.1765C90.9176 48.2588 90.6705 48.5059 90.5058 48.6706C90.2587 48.9176 90.094 49.1647 90.0117 49.4941C89.9293 49.8235 89.847 50.1529 89.847 50.5647C89.847 50.9765 89.9293 51.3059 90.0117 51.6353C90.094 51.9647 90.2587 52.2118 90.5058 52.4588C90.6705 52.7059 90.9176 52.8706 91.247 52.9529C91.5764 53.0353 91.8234 53.1176 92.1529 53.1176C92.3176 53.1176 92.4823 53.1176 92.647 53.1176C92.8117 53.1176 92.9764 53.0353 93.0587 53.0353C93.2234 52.9529 93.3058 52.9529 93.3881 52.8706C93.4705 52.7882 93.6352 52.7059 93.7176 52.6235C94.047 52.4588 94.047 52.4588 94.1293 52.4588Z" fill="#58595B"/>
<path d="M98.4117 53.7765H97.5059V47.2706H98.4117V53.7765Z" fill="#58595B"/>
<path d="M107.223 53.7765H106.565C106.482 53.7765 106.4 53.7765 106.4 53.6941C106.317 53.6941 106.317 53.6118 106.317 53.5294L105.741 51.9647H102.776L102.2 53.5294C102.2 53.6118 102.117 53.6118 102.117 53.6941C102.035 53.7765 102.035 53.7765 101.953 53.7765H101.294L103.929 47.2706H104.835L107.223 53.7765ZM102.941 51.3882H105.412L104.423 48.7529C104.341 48.5882 104.259 48.4235 104.259 48.1765C104.259 48.3412 104.176 48.4235 104.176 48.5059C104.176 48.5882 104.094 48.6706 104.094 48.7529L102.941 51.3882Z" fill="#58595B"/>
<path d="M110.517 53.0353H113.317V53.7765H109.611V47.2706H110.517V53.0353Z" fill="#58595B"/>
<path d="M117.023 53.7765H116.117V47.2706H117.023V53.7765Z" fill="#58595B"/>
<path d="M123.694 48.3412C123.694 48.4235 123.612 48.4235 123.612 48.4235H123.529C123.447 48.4235 123.447 48.4235 123.365 48.3412C123.282 48.2588 123.2 48.2588 123.118 48.1765C123.035 48.0941 122.87 48.0941 122.706 48.0118C122.541 47.9294 122.376 47.9294 122.212 47.9294C122.047 47.9294 121.8 47.9294 121.718 48.0118C121.553 48.0941 121.47 48.1765 121.306 48.2588C121.223 48.3412 121.141 48.4235 121.059 48.5882C120.976 48.6706 120.976 48.8353 120.976 49C120.976 49.1647 121.059 49.3294 121.141 49.4941C121.223 49.5765 121.388 49.7412 121.47 49.8235C121.553 49.9059 121.8 49.9882 121.965 50.0706C122.129 50.1529 122.376 50.2353 122.541 50.2353C122.706 50.3176 122.953 50.4 123.118 50.4823C123.282 50.5647 123.447 50.6471 123.612 50.8118C123.776 50.9765 123.859 51.0588 123.941 51.3059C124.023 51.4706 124.106 51.7176 124.106 51.9647C124.106 52.2118 124.023 52.5412 123.941 52.7882C123.859 53.0353 123.694 53.2824 123.529 53.4471C123.365 53.6118 123.118 53.7765 122.87 53.8588C122.623 53.9412 122.294 54.0235 121.965 54.0235C121.553 54.0235 121.141 53.9412 120.812 53.7765C120.482 53.6118 120.153 53.4471 119.906 53.1176L120.153 52.7059L120.235 52.6235H120.318C120.4 52.6235 120.482 52.6235 120.565 52.7059C120.647 52.7882 120.729 52.8706 120.894 52.9529C120.976 53.0353 121.141 53.1176 121.306 53.2C121.47 53.2823 121.718 53.2823 121.965 53.2823C122.212 53.2823 122.376 53.2823 122.541 53.2C122.706 53.1176 122.87 53.0353 122.953 52.9529C123.035 52.8706 123.118 52.7059 123.2 52.5412C123.282 52.3765 123.282 52.2118 123.282 52.0471C123.282 51.8824 123.2 51.7176 123.118 51.5529C123.035 51.3882 122.87 51.3059 122.788 51.2235C122.623 51.1412 122.459 51.0588 122.294 50.9765C122.129 50.8941 121.882 50.8941 121.718 50.8118C121.553 50.7294 121.306 50.6471 121.141 50.5647C120.976 50.4824 120.812 50.4 120.647 50.2353C120.482 50.0706 120.4 49.9059 120.318 49.7412C120.235 49.5765 120.153 49.3294 120.153 49C120.153 48.7529 120.235 48.5059 120.318 48.3412C120.4 48.0941 120.565 47.9294 120.729 47.7647C120.894 47.6 121.141 47.4353 121.388 47.3529C121.635 47.2706 121.965 47.1882 122.212 47.1882C122.541 47.1882 122.87 47.2706 123.2 47.3529C123.529 47.4353 123.776 47.6 124.023 47.8471L123.694 48.3412Z" fill="#58595B"/>
<path d="M131.27 47.2706V48.0118H129.129V53.7765H128.223V48.0118H126.082V47.2706H131.27Z" fill="#58595B"/>
<path d="M131.353 56.3294H8.64697V56.6588H131.353V56.3294Z" fill="#004761"/>
<path d="M124.27 9.05882C124.27 7.08235 125.835 5.51764 127.811 5.51764C129.788 5.51764 131.353 7.08235 131.353 9.05882C131.353 11.0353 129.788 12.6 127.811 12.6C125.835 12.6 124.27 10.9529 124.27 9.05882ZM115.376 5.43529C113.4 5.43529 111.835 6.99999 111.835 8.97646C111.835 10.9529 113.4 12.5176 115.376 12.5176C117.353 12.5176 118.917 10.9529 118.917 8.97646C118.917 7.08235 117.27 5.43529 115.376 5.43529ZM127.811 17.8706C125.835 17.8706 124.27 19.4353 124.27 21.4118C124.27 23.3882 125.835 24.9529 127.811 24.9529C129.788 24.9529 131.353 23.3882 131.353 21.4118C131.353 19.5176 129.788 17.8706 127.811 17.8706Z" fill="url(#paint0_linear_107_1347)"/>
<path d="M19.1878 34.1765C19.1878 35.3294 19.0231 36.4 18.7761 37.3882C18.4466 38.3765 18.0349 39.2 17.4584 39.8588C16.8819 40.5177 16.1408 41.0941 15.2349 41.4235C14.2467 41.8353 13.1761 42 12.0231 42C11.4467 42 10.9525 42 10.3761 41.9177C9.79959 41.8353 9.30547 41.7529 8.729 41.5882L8.97606 38.7059C8.97606 38.4588 9.14077 38.2118 9.30547 38.1294C9.47018 37.9647 9.71724 37.8824 10.0467 37.8824C10.2114 37.8824 10.3761 37.8824 10.6231 37.9647C10.8702 38.0471 11.1172 38.0471 11.529 38.0471C12.0231 38.0471 12.4349 37.9647 12.7643 37.8824C13.0937 37.7177 13.4231 37.5529 13.6702 37.2235C13.9172 36.8941 14.0819 36.4824 14.1643 36.0706C14.2467 35.5765 14.329 35 14.329 34.2588V20.7529H19.1878V34.1765Z" fill="#004761"/>
<path d="M52.2938 20.7529V41.8353H48.0115V29.6471C48.0115 29.4 48.0115 29.0706 48.0115 28.7412C48.0115 28.4118 48.0115 28.0824 48.0938 27.7529L42.4938 38.6235C42.3291 38.9529 42.0821 39.2 41.7526 39.3647C41.4232 39.5294 41.0938 39.6118 40.7644 39.6118H40.1056C39.6938 39.6118 39.3644 39.5294 39.1173 39.3647C38.7879 39.2 38.6232 38.9529 38.3762 38.6235L32.7762 27.7529C32.7762 28.0824 32.8585 28.4118 32.8585 28.7412C32.8585 29.0706 32.8585 29.4 32.8585 29.6471V41.7529H28.5762V20.7529H32.2821C32.5291 20.7529 32.6938 20.7529 32.8585 20.7529C33.0232 20.7529 33.1879 20.7529 33.2703 20.8353C33.435 20.9176 33.5173 20.9177 33.5997 21.0824C33.6821 21.1647 33.7644 21.3294 33.9291 21.4941L39.3644 32.2C39.5291 32.5294 39.7762 32.9412 39.9409 33.3529C40.1056 33.7647 40.2703 34.1765 40.435 34.5882C40.5997 34.1765 40.7644 33.7647 40.9291 33.3529C41.0938 32.9412 41.2585 32.5294 41.5056 32.2L46.9409 21.4941C47.0232 21.3294 47.1056 21.1647 47.2703 21.0824C47.3526 21 47.5173 20.9176 47.5997 20.8353C47.7644 20.7529 47.8468 20.7529 48.0115 20.7529C48.1762 20.7529 48.3409 20.7529 48.5879 20.7529H52.2938Z" fill="#004761"/>
<path d="M69.4233 20.7529C70.9057 20.7529 72.141 20.9177 73.1292 21.1647C74.1174 21.4118 75.0233 21.8235 75.5998 22.3177C76.2586 22.8118 76.7527 23.3882 76.9998 24.1294C77.3292 24.8706 77.4115 25.6118 77.4115 26.5177C77.4115 27.0118 77.3292 27.4235 77.2468 27.9177C77.0821 28.3294 76.9174 28.7412 76.588 29.1529C76.2586 29.5647 75.9292 29.8941 75.4351 30.2235C74.9409 30.5529 74.4468 30.8 73.788 31.0471C75.188 31.3765 76.1762 31.9529 76.8351 32.6941C77.4939 33.4353 77.8233 34.4235 77.8233 35.5765C77.8233 36.4824 77.6586 37.3059 77.3292 38.0471C76.9998 38.7882 76.5057 39.5294 75.7645 40.1059C75.1057 40.6824 74.2821 41.0941 73.2939 41.4235C72.3057 41.7529 71.1527 41.9177 69.9174 41.9177H61.6821V20.7529H69.4233ZM66.541 24.3765V29.5647H69.0939C69.6704 29.5647 70.0821 29.5647 70.5762 29.4824C70.988 29.4 71.3998 29.2353 71.6468 29.0706C71.9762 28.9059 72.141 28.5765 72.3057 28.2471C72.4704 27.9176 72.5527 27.5059 72.5527 27.0118C72.5527 26.5176 72.4704 26.1059 72.388 25.7765C72.2233 25.4471 72.0586 25.2 71.8115 24.9529C71.5645 24.7882 71.2351 24.6235 70.8233 24.5412C70.4115 24.4588 69.9174 24.3765 69.4233 24.3765H66.541ZM69.9998 38.1294C70.6586 38.1294 71.1527 38.0471 71.5645 37.8824C71.9762 37.7177 72.3057 37.4706 72.5527 37.2235C72.7998 36.9765 72.9645 36.6471 73.0468 36.3176C73.1292 35.9882 73.2115 35.6588 73.2115 35.3294C73.2115 34.9177 73.1292 34.5882 73.0468 34.2588C72.9645 33.9294 72.7998 33.6824 72.5527 33.5177C72.3057 33.2706 71.9762 33.1059 71.5645 33.0235C71.1527 32.9412 70.6586 32.8588 69.9998 32.8588H66.6233V38.1294H69.9998Z" fill="#004761"/>
<path d="M100.553 41.8353H96.7645C96.3527 41.8353 96.0233 41.7529 95.7763 41.5059C95.5292 41.3412 95.2821 41.0941 95.1998 40.7647L93.8821 37.0588H85.8939L84.6586 40.7647C84.5763 41.0118 84.3292 41.2588 84.0821 41.5059C83.8351 41.7529 83.5057 41.8353 83.0939 41.8353H79.3057L87.4586 20.7529H92.4821L100.553 41.8353ZM92.7292 33.7647L90.7527 28C90.588 27.6706 90.4233 27.1765 90.2586 26.6824C90.0939 26.1882 89.9292 25.6118 89.7645 25.0353C89.5998 25.6118 89.4351 26.1882 89.2704 26.6824C89.1057 27.1765 88.941 27.5882 88.7763 28L86.7998 33.7647H92.7292Z" fill="#004761"/>
<path d="M122.788 41.8353H117.929C117.6 41.8353 117.353 41.7529 117.188 41.5882C117.023 41.4235 116.859 41.2588 116.694 41.0118L112.494 33.6C112.411 33.847 112.329 34.0118 112.247 34.1765L108.294 41.0118C108.129 41.1765 107.964 41.4235 107.8 41.5059C107.635 41.6706 107.388 41.7529 107.059 41.7529H102.447L109.2 30.8823L102.694 20.6706H107.553C107.882 20.6706 108.129 20.7529 108.294 20.7529C108.459 20.8353 108.541 21 108.706 21.1647L112.906 28.247C112.988 28.0823 112.988 28 113.07 27.9176C113.153 27.8353 113.235 27.6706 113.317 27.5882L117.023 21.247C117.188 21 117.27 20.9176 117.435 20.7529C117.6 20.6706 117.764 20.5882 118.011 20.5882H122.706L116.117 30.6353L122.788 41.8353Z" fill="#004761"/>
<path d="M130.035 26.7647V41.7529H125.588V26.7647H130.035Z" fill="#004761"/>
<defs>
<linearGradient id="paint0_linear_107_1347" x1="112.295" y1="23.9212" x2="130.615" y2="6.77007" gradientUnits="userSpaceOnUse">
<stop offset="0.3951" stop-color="#FFC10E"/>
<stop offset="1" stop-color="#EE4043"/>
</linearGradient>
</defs>
</svg>
