<svg width="1536" height="1024" viewBox="0 0 1536 1024" xmlns="http://www.w3.org/2000/svg" role="img" xmlns:c2pa="http://c2pa.org/manifest"><metadata><c2pa:manifest>AAAWgmp1bWIAAAAeanVtZGMycGEAEQAQgAAAqgA4m3EDYzJwYQAAABZcanVtYgAAAEdqdW1kYzJtYQARABCAAACqADibcQN1cm46YzJwYTplMmFjOTEwMC1mMWIxLTQ3ZDUtYjA2Mi1jMzVkMjRmNmUxNTAAAAADl2p1bWIAAAApanVtZGMyYXMAEQAQgAAAqgA4m3EDYzJwYS5hc3NlcnRpb25zAAAAALxqdW1iAAAARGp1bWRjYm9yABEAEIAAAKoAOJtxE2MycGEuaW5ncmVkaWVudC52MwAAAAAYYzJzaOf3xAjN7300skb7UlFF/PEAAABwY2JvcqNpZGM6Zm9ybWF0bWltYWdlL3N2Zyt4bWxqaW5zdGFuY2VJRHgseG1wOmlpZDoxNTBjYjM2Zi1jNDYzLTQzZjYtYTFkZS1hZGYzMzIxZDMyZTJscmVsYXRpb25zaGlwaHBhcmVudE9mAAAB4mp1bWIAAABBanVtZGNib3IAEQAQgAAAqgA4m3ETYzJwYS5hY3Rpb25zLnYyAAAAABhjMnNogWAtoENNMzGMCfC0siZdkAAAAZljYm9yomdhY3Rpb25zgqJmYWN0aW9ua2MycGEub3BlbmVkanBhcmFtZXRlcnOha2luZ3JlZGllbnRzgaJjdXJseC1zZWxmI2p1bWJmPWMycGEuYXNzZXJ0aW9ucy9jMnBhLmluZ3JlZGllbnQudjNkaGFzaFggUs6fLfWAsfyRuWPYrrKtauoTctxo7JzvnLyIEscH4eikZmFjdGlvbngdY29tLmFudGhyb3BpYy5jbGF1ZGUucHJvdmlkZWRqcGFyYW1ldGVyc6F4H2NvbS5hbnRocm9waWMub3JpZ2luLWNvbmZpZGVuY2VndW5rbm93bmtkZXNjcmlwdGlvbnhmQ2xhdWRlIHByb3ZpZGVkIHRoaXMgZmlsZSBhdCB0aGUgcmVxdWVzdCBvZiBhIHVzZXIgYW5kIG1heSBoYXZlIGNyZWF0ZWQgb3IgbW9kaWZpZWQgdGhlIGZpbGUgY29udGVudHMubXNvZnR3YXJlQWdlbnShZG5hbWVmQ2xhdWRlcmFsbEFjdGlvbnNJbmNsdWRlZPUAAADIanVtYgAAAEBqdW1kY2JvcgARABCAAACqADibcRNjMnBhLmhhc2guZGF0YQAAAAAYYzJzaFbaMHB3h32QsalnKxFxtz4AAACAY2JvcqVjYWxnZnNoYTI1NmNwYWRNAAAAAAAAAAAAAAAAAGRoYXNoWCDU09TqvJvosj9thp6btIqcayRimDM9PwthyQyfzUPNX2RuYW1lbmp1bWJmIG1hbmlmZXN0amV4Y2x1c2lvbnOBomVzdGFydBilZmxlbmd0aBkeBAAAAj5qdW1iAAAAJ2p1bWRjMmNsABEAEIAAAKoAOJtxA2MycGEuY2xhaW0udjIAAAACD2Nib3KlY2FsZ2ZzaGEyNTZpc2lnbmF0dXJleE1zZWxmI2p1bWJmPS9jMnBhL3VybjpjMnBhOmUyYWM5MTAwLWYxYjEtNDdkNS1iMDYyLWMzNWQyNGY2ZTE1MC9jMnBhLnNpZ25hdHVyZWppbnN0YW5jZUlEeCx4bXA6aWlkOjZmNWQ4ZTg0LWI2OWYtNDU3MC1hODU1LTE0MTcxMmFiNzEwOXJjcmVhdGVkX2Fzc2VydGlvbnODomN1cmx4LXNlbGYjanVtYmY9YzJwYS5hc3NlcnRpb25zL2MycGEuaW5ncmVkaWVudC52M2RoYXNoWCBSzp8t9YCx/JG5Y9iusq1q6hNy3GjsnO+cvIgSxwfh6KJjdXJseCpzZWxmI2p1bWJmPWMycGEuYXNzZXJ0aW9ucy9jMnBhLmFjdGlvbnMudjJkaGFzaFggAFa9e1QjYYY+4AHyVcKsQhDBIQqjX/MHsWRg/Nka3zKiY3VybHgpc2VsZiNqdW1iZj1jMnBhLmFzc2VydGlvbnMvYzJwYS5oYXNoLmRhdGFkaGFzaFggx5Kprb18rN7VkCiG/a5yvvv8nGNlphzRnPfhHw8LWkZ0Y2xhaW1fZ2VuZXJhdG9yX2luZm+jZG5hbWVvQW50aHJvcGljIEZpbGVzZ3ZlcnNpb25lMS4wLjBrc3BlY1ZlcnNpb25lMi40LjAAABA4anVtYgAAAChqdW1kYzJjcwARABCAAACqADibcQNjMnBhLnNpZ25hdHVyZQAAABAIY2JvctKEWQISogEmGCFZAgowggIGMIIBjaADAgECAhRA5aAK7sI50L64g/oGQgU9Z1UTADAKBggqhkjOPQQDAzBJMRcwFQYDVQQKEw5BbnRocm9waWMsIFBCQzEuMCwGA1UEAxMlQW50aHJvcGljIENvbnRlbnQgQ3JlZGVudGlhbHMgUm9vdCBDQTAeFw0yNjA4MDcxODQzNTZaFw0yODA4MDYxOTQzNTZaMEQxFzAVBgNVBAoTDkFudGhyb3BpYywgUEJDMSkwJwYDVQQDEyBBbnRocm9waWMgQ2xhdWRlIENvbnRlbnQgU2lnbmluZzBZMBMGByqGSM49AgEGCCqGSM49AwEHA0IABJh6CmvLUBgFFNU0vUKlOVtE6djd17L5SuwX0LemFisBM3dkd/3cyjxFA3Qo5S46fX0/ihY0VZ7mfb9KF703t5OjWDBWMA4GA1UdDwEB/wQEAwIHgDAVBgNVHSUEDjAMBgorBgEEAYPoXgIBMAwGA1UdEwEB/wQCMAAwHwYDVR0jBBgwFoAUzlHiBIFOZFsj+OPEz5o+nMHXXMIwCgYIKoZIzj0EAwMDZwAwZAIwMXMdFJ4BetLLVY7ORuE9noqbbAZOZn/aArXyTwFAZfKrPzxF2vPoJNf1+UCdg1XGAjBwX1zd9WGqYkqmL5SFqw1QySjr1zJfpJM9+1rdDwSPLMOPOjKuiXjoU/pUUeG9RwmhY3BhZFkNngAAAAAAAAAAAAAAAAAAAAAAAAAAAAAAAAAAAAAAAAAAAAAAAAAAAAAAAAAAAAAAAAAAAAAAAAAAAAAAAAAAAAAAAAAAAAAAAAAAAAAAAAAAAAAAAAAAAAAAAAAAAAAAAAAAAAAAAAAAAAAAAAAAAAAAAAAAAAAAAAAAAAAAAAAAAAAAAAAAAAAAAAAAAAAAAAAAAAAAAAAAAAAAAAAAAAAAAAAAAAAAAAAAAAAAAAAAAAAAAAAAAAAAAAAAAAAAAAAAAAAAAAAAAAAAAAAAAAAAAAAAAAAAAAAAAAAAAAAAAAAAAAAAAAAAAAAAAAAAAAAAAAAAAAAAAAAAAAAAAAAAAAAAAAAAAAAAAAAAAAAAAAAAAAAAAAAAAAAAAAAAAAAAAAAAAAAAAAAAAAAAAAAAAAAAAAAAAAAAAAAAAAAAAAAAAAAAAAAAAAAAAAAAAAAAAAAAAAAAAAAAAAAAAAAAAAAAAAAAAAAAAAAAAAAAAAAAAAAAAAAAAAAAAAAAAAAAAAAAAAAAAAAAAAAAAAAAAAAAAAAAAAAAAAAAAAAAAAAAAAAAAAAAAAAAAAAAAAAAAAAAAAAAAAAAAAAAAAAAAAAAAAAAAAAAAAAAAAAAAAAAAAAAAAAAAAAAAAAAAAAAAAAAAAAAAAAAAAAAAAAAAAAAAAAAAAAAAAAAAAAAAAAAAAAAAAAAAAAAAAAAAAAAAAAAAAAAAAAAAAAAAAAAAAAAAAAAAAAAAAAAAAAAAAAAAAAAAAAAAAAAAAAAAAAAAAAAAAAAAAAAAAAAAAAAAAAAAAAAAAAAAAAAAAAAAAAAAAAAAAAAAAAAAAAAAAAAAAAAAAAAAAAAAAAAAAAAAAAAAAAAAAAAAAAAAAAAAAAAAAAAAAAAAAAAAAAAAAAAAAAAAAAAAAAAAAAAAAAAAAAAAAAAAAAAAAAAAAAAAAAAAAAAAAAAAAAAAAAAAAAAAAAAAAAAAAAAAAAAAAAAAAAAAAAAAAAAAAAAAAAAAAAAAAAAAAAAAAAAAAAAAAAAAAAAAAAAAAAAAAAAAAAAAAAAAAAAAAAAAAAAAAAAAAAAAAAAAAAAAAAAAAAAAAAAAAAAAAAAAAAAAAAAAAAAAAAAAAAAAAAAAAAAAAAAAAAAAAAAAAAAAAAAAAAAAAAAAAAAAAAAAAAAAAAAAAAAAAAAAAAAAAAAAAAAAAAAAAAAAAAAAAAAAAAAAAAAAAAAAAAAAAAAAAAAAAAAAAAAAAAAAAAAAAAAAAAAAAAAAAAAAAAAAAAAAAAAAAAAAAAAAAAAAAAAAAAAAAAAAAAAAAAAAAAAAAAAAAAAAAAAAAAAAAAAAAAAAAAAAAAAAAAAAAAAAAAAAAAAAAAAAAAAAAAAAAAAAAAAAAAAAAAAAAAAAAAAAAAAAAAAAAAAAAAAAAAAAAAAAAAAAAAAAAAAAAAAAAAAAAAAAAAAAAAAAAAAAAAAAAAAAAAAAAAAAAAAAAAAAAAAAAAAAAAAAAAAAAAAAAAAAAAAAAAAAAAAAAAAAAAAAAAAAAAAAAAAAAAAAAAAAAAAAAAAAAAAAAAAAAAAAAAAAAAAAAAAAAAAAAAAAAAAAAAAAAAAAAAAAAAAAAAAAAAAAAAAAAAAAAAAAAAAAAAAAAAAAAAAAAAAAAAAAAAAAAAAAAAAAAAAAAAAAAAAAAAAAAAAAAAAAAAAAAAAAAAAAAAAAAAAAAAAAAAAAAAAAAAAAAAAAAAAAAAAAAAAAAAAAAAAAAAAAAAAAAAAAAAAAAAAAAAAAAAAAAAAAAAAAAAAAAAAAAAAAAAAAAAAAAAAAAAAAAAAAAAAAAAAAAAAAAAAAAAAAAAAAAAAAAAAAAAAAAAAAAAAAAAAAAAAAAAAAAAAAAAAAAAAAAAAAAAAAAAAAAAAAAAAAAAAAAAAAAAAAAAAAAAAAAAAAAAAAAAAAAAAAAAAAAAAAAAAAAAAAAAAAAAAAAAAAAAAAAAAAAAAAAAAAAAAAAAAAAAAAAAAAAAAAAAAAAAAAAAAAAAAAAAAAAAAAAAAAAAAAAAAAAAAAAAAAAAAAAAAAAAAAAAAAAAAAAAAAAAAAAAAAAAAAAAAAAAAAAAAAAAAAAAAAAAAAAAAAAAAAAAAAAAAAAAAAAAAAAAAAAAAAAAAAAAAAAAAAAAAAAAAAAAAAAAAAAAAAAAAAAAAAAAAAAAAAAAAAAAAAAAAAAAAAAAAAAAAAAAAAAAAAAAAAAAAAAAAAAAAAAAAAAAAAAAAAAAAAAAAAAAAAAAAAAAAAAAAAAAAAAAAAAAAAAAAAAAAAAAAAAAAAAAAAAAAAAAAAAAAAAAAAAAAAAAAAAAAAAAAAAAAAAAAAAAAAAAAAAAAAAAAAAAAAAAAAAAAAAAAAAAAAAAAAAAAAAAAAAAAAAAAAAAAAAAAAAAAAAAAAAAAAAAAAAAAAAAAAAAAAAAAAAAAAAAAAAAAAAAAAAAAAAAAAAAAAAAAAAAAAAAAAAAAAAAAAAAAAAAAAAAAAAAAAAAAAAAAAAAAAAAAAAAAAAAAAAAAAAAAAAAAAAAAAAAAAAAAAAAAAAAAAAAAAAAAAAAAAAAAAAAAAAAAAAAAAAAAAAAAAAAAAAAAAAAAAAAAAAAAAAAAAAAAAAAAAAAAAAAAAAAAAAAAAAAAAAAAAAAAAAAAAAAAAAAAAAAAAAAAAAAAAAAAAAAAAAAAAAAAAAAAAAAAAAAAAAAAAAAAAAAAAAAAAAAAAAAAAAAAAAAAAAAAAAAAAAAAAAAAAAAAAAAAAAAAAAAAAAAAAAAAAAAAAAAAAAAAAAAAAAAAAAAAAAAAAAAAAAAAAAAAAAAAAAAAAAAAAAAAAAAAAAAAAAAAAAAAAAAAAAAAAAAAAAAAAAAAAAAAAAAAAAAAAAAAAAAAAAAAAAAAAAAAAAAAAAAAAAAAAAAAAAAAAAAAAAAAAAAAAAAAAAAAAAAAAAAAAAAAAAAAAAAAAAAAAAAAAAAAAAAAAAAAAAAAAAAAAAAAAAAAAAAAAAAAAAAAAAAAAAAAAAAAAAAAAAAAAAAAAAAAAAAAAAAAAAAAAAAAAAAAAAAAAAAAAAAAAAAAAAAAAAAAAAAAAAAAAAAAAAAAAAAAAAAAAAAAAAAAAAAAAAAAAAAAAAAAAAAAAAAAAAAAAAAAAAAAAAAAAAAAAAAAAAAAAAAAAAAAAAAAAAAAAAAAAAAAAAAAAAAAAAAAAAAAAAAAAAAAAAAAAAAAAAAAAAAAAAAAAAAAAAAAAAAAAAAAAAAAAAAAAAAAAAAAAAAAAAAAAAAAAAAAAAAAAAAAAAAAAAAAAAAAAAAAAAAAAAAAAAAAAAAAAAAAAAAAAAAAAAAAAAAAAAAAAAAAAAAAAAAAAAAAAAAAAAAAAAAAAAAAAAAAAAAAAAAAAAAAAAAAAAAAAAAAAAAAAAAAAAAAAAAAAAAAAAAAAAAAAAAAAAAAAAAAAAAAAAAAAAAAAAAAAAAAAAAAAAAAAAAAAAAAAAAAAAAAAAAAAAAAAAAAAAAAAAAAAAAAAAAAAAAAAAAAAAAAAAAAAAAAAAAAAAAAAAAAAAAAAAAAAAAAAAAAAAAAAAAAAAAAAAAAAAAAAAAAAAAAAAAAAAAAAAAAAAAAAAAAAAAAAAAAAAAAAAAAAAAAAAAAAAAAAAAAAAAAAAAAAAAAAAAAAAAAAAAAAAAAAAAAAAAAAAAAAAAAAAAAAAAAAAAAAAAAAAAAAAAAAAAAAAAAAAAAAAAAAAAAAAAAAAAAAAAAAAAAAAAAAAAAAAAAAAAAAAAAAAAAAAAAAAAAAAAAAAAAAAAAAAAAAAAAAAAAAAAAAAAAAAAAAAAAAAAAAAAAAAAAAAAAAAAAAAAAAAAAAAAAAAAAAAAAAAAAAAAAAAAAAAAAAAAAAAAAAAAAAAAAAAAAAAAAAAAAAAAAAAAAAAAAAAAAAAAAAAAAAAAAAAAAAAAAAAAAAAAAAAAAAAAAAAAAAAAAAAAAAAAAAAAAAAAAAAAAAAAAAAAAAAAAAAAAAAAAAAAAAAAAAAAAAAAAAAAAAAAAAAAAAAAAAAAAAAAAAAAAAAAAAAAAAAAAAAAAAAAAAAAAAAAAAAAAAAAAAAAAAAAAAAAAAAAAAAAAAAAAAAAAAAAAAAAAAAAAAAAAAAAAAAAAAAAAAAAAAAAAAAAAAAAAAAAAAAAAAAAAAAAAAAAAAAAAAAAAAAAAAAAAAAAAAAAAAAAAAAAAAAAAAAAAAAAAAAAAAAAAAAAAAAAAAAAAAAAAAAAAAAAAAAAAAAAAAAAAAAAAAAAAAAAAAAAAAAAAAAAAAAAAAAAAAAAAAAAAAAAAAAAAAAAAAAAAAAAAAAAAAAAAAAAAAAAAAAAAAAAAAAAAAAAAAAAAAAAAAAAAAAAAAAAAAAAAAAAAAAAAAAAAAAAAAAAAAAAAAAAAAAAAAAAAAAAAAAAAAAAAAAAAAAAAAAAAAAAAAAAAAAAAAAAAAAAAAAAAAAAAAAAAAAAAAAAAAAAAAAAAAAAAAAAAAAAAAAAAAAAAAAAAAAAAAAAAAAAAAAAAAAAAAAAAAAAAAAAAAAAAAAAAAAAAAAAAAAAAAAAAAAAAAAAAAAAAAAAAAAAAAAAAAAAAAAAAAAAAAAAAAAAAAAAAAAAAAAAAAAAAAAAAAAAAAAAAAAAAAAAAAPZYQJiSMEyraHfQG6w5ka0XhPvwzhMFE5tJ/8Vn8b2jC/C4jt0pPp51o7YQJumougMAjpIS+WCZ1OsOKQNdWGtScJc=</c2pa:manifest></metadata>
<title>Terminal not found</title>
<desc>Illustration of a delivery worker sitting near a logistics terminal building with a search icon showing no results</desc>

<defs>
  <linearGradient id="sky" x1="0" y1="0" x2="0" y2="1">
    <stop offset="0%" stop-color="#eef3fb"/>
    <stop offset="100%" stop-color="#f8fafc"/>
  </linearGradient>
  <linearGradient id="bldgFace" x1="0" y1="0" x2="0" y2="1">
    <stop offset="0%" stop-color="#f4f7fa"/>
    <stop offset="100%" stop-color="#e3e9ee"/>
  </linearGradient>
  <linearGradient id="bldgRoof" x1="0" y1="0" x2="0" y2="1">
    <stop offset="0%" stop-color="#38506b"/>
    <stop offset="100%" stop-color="#233246"/>
  </linearGradient>
  <linearGradient id="glass" x1="0" y1="0" x2="1" y2="1">
    <stop offset="0%" stop-color="#cfe4f2"/>
    <stop offset="100%" stop-color="#a9c9df"/>
  </linearGradient>
  <linearGradient id="doorMetal" x1="0" y1="0" x2="0" y2="1">
    <stop offset="0%" stop-color="#fbfcfd"/>
    <stop offset="100%" stop-color="#dde4ea"/>
  </linearGradient>
  <linearGradient id="shirt" x1="0" y1="0" x2="1" y2="1">
    <stop offset="0%" stop-color="#3a5878"/>
    <stop offset="100%" stop-color="#22384f"/>
  </linearGradient>
  <linearGradient id="pants" x1="0" y1="0" x2="0" y2="1">
    <stop offset="0%" stop-color="#2a3b4d"/>
    <stop offset="100%" stop-color="#18232f"/>
  </linearGradient>
  <linearGradient id="truckBody" x1="0" y1="0" x2="0" y2="1">
    <stop offset="0%" stop-color="#fdfefe"/>
    <stop offset="100%" stop-color="#dfe6eb"/>
  </linearGradient>
  <radialGradient id="bubbleGlow" cx="50%" cy="35%" r="65%">
    <stop offset="0%" stop-color="#ffffff"/>
    <stop offset="100%" stop-color="#eef2f6"/>
  </radialGradient>
  <linearGradient id="coneGrad" x1="0" y1="0" x2="0" y2="1">
    <stop offset="0%" stop-color="#ff9d4d"/>
    <stop offset="100%" stop-color="#e97b1f"/>
  </linearGradient>
  <filter id="soft" x="-40%" y="-40%" width="180%" height="180%">
    <feDropShadow dx="0" dy="10" stdDeviation="12" flood-color="#1f2d3d" flood-opacity="0.10"/>
  </filter>
  <filter id="softSmall" x="-60%" y="-60%" width="220%" height="220%">
    <feDropShadow dx="0" dy="4" stdDeviation="5" flood-color="#1f2d3d" flood-opacity="0.12"/>
  </filter>
</defs>

<rect width="1536" height="1024" fill="#ffffff"/>
<ellipse cx="768" cy="430" rx="640" ry="390" fill="url(#sky)"/>

<!-- city skyline left -->
<g fill="#e4e9ef" opacity="0.9">
  <rect x="215" y="350" width="60" height="250"/>
  <rect x="285" y="290" width="72" height="310"/>
  <rect x="368" y="375" width="50" height="225"/>
  <rect x="140" y="415" width="66" height="185"/>
</g>
<!-- city skyline right -->
<g fill="#e4e9ef" opacity="0.9">
  <rect x="1255" y="375" width="55" height="225"/>
  <rect x="1320" y="310" width="72" height="290"/>
  <rect x="1185" y="415" width="55" height="185"/>
  <rect x="1400" y="395" width="60" height="205"/>
</g>

<!-- clouds -->
<g fill="#ffffff">
  <ellipse cx="460" cy="190" rx="58" ry="26"/>
  <ellipse cx="502" cy="180" rx="42" ry="22"/>
  <ellipse cx="1090" cy="160" rx="52" ry="24"/>
  <ellipse cx="1132" cy="150" rx="36" ry="20"/>
</g>

<!-- birds -->
<g stroke="#c3ccd6" stroke-width="3" fill="none" stroke-linecap="round">
  <path d="M300 145 q10 -12 20 0 q10 -12 20 0"/>
  <path d="M1235 120 q9 -10 18 0 q9 -10 18 0"/>
</g>

<!-- dashed flight path with paper plane -->
<g fill="none" stroke="#aeb7c0" stroke-width="2.5" stroke-dasharray="6 8">
  <path d="M470 470 C 420 420, 470 350, 420 310 C 380 280, 420 240, 470 210"/>
</g>
<g transform="translate(462,196) rotate(35)">
  <path d="M0 0 L34 10 L0 20 L6 10 Z" fill="#9aa4ae"/>
</g>

<!-- ============ TERMINAL BUILDING ============ -->
<g filter="url(#soft)">
  <ellipse cx="980" cy="748" rx="300" ry="20" fill="#dfe4e9"/>

  <rect x="805" y="465" width="350" height="278" rx="8" fill="url(#bldgFace)" stroke="#c9d1d9" stroke-width="1.5"/>
  <rect x="792" y="444" width="376" height="30" rx="5" fill="url(#bldgRoof)"/>
  <rect x="792" y="466" width="376" height="6" fill="#1a2634"/>

  <!-- bay doors -->
  <g>
    <rect x="838" y="558" width="76" height="158" rx="6" fill="url(#doorMetal)" stroke="#c9d1d9" stroke-width="1.5"/>
    <rect x="838" y="558" width="76" height="20" fill="#c9d1d9"/>
    <line x1="838" y1="596" x2="914" y2="596" stroke="#d4dbe1" stroke-width="3"/>
    <line x1="838" y1="622" x2="914" y2="622" stroke="#d4dbe1" stroke-width="3"/>
    <line x1="838" y1="648" x2="914" y2="648" stroke="#d4dbe1" stroke-width="3"/>
    <line x1="838" y1="674" x2="914" y2="674" stroke="#d4dbe1" stroke-width="3"/>

    <rect x="932" y="558" width="76" height="158" rx="6" fill="url(#doorMetal)" stroke="#c9d1d9" stroke-width="1.5"/>
    <rect x="932" y="558" width="76" height="20" fill="#c9d1d9"/>
    <line x1="932" y1="596" x2="1008" y2="596" stroke="#d4dbe1" stroke-width="3"/>
    <line x1="932" y1="622" x2="1008" y2="622" stroke="#d4dbe1" stroke-width="3"/>
    <line x1="932" y1="648" x2="1008" y2="648" stroke="#d4dbe1" stroke-width="3"/>
    <line x1="932" y1="674" x2="1008" y2="674" stroke="#d4dbe1" stroke-width="3"/>
  </g>

  <!-- office window section with reflection -->
  <rect x="1035" y="525" width="105" height="86" rx="6" fill="url(#glass)" stroke="#a7c1d4" stroke-width="1.5"/>
  <line x1="1087" y1="525" x2="1087" y2="611" stroke="#a7c1d4" stroke-width="1.5"/>
  <path d="M1042 605 L1075 532" stroke="#ffffff" stroke-width="6" opacity="0.45" stroke-linecap="round"/>

  <!-- terminal sign -->
  <rect x="900" y="484" width="160" height="36" rx="6" fill="#1c2836"/>
  <text x="980" y="508" text-anchor="middle" font-family="Arial, Helvetica, sans-serif" font-size="17" font-weight="700" fill="#ffffff" letter-spacing="1">TERMINAL</text>

  <!-- entrance -->
  <rect x="1005" y="672" width="42" height="71" rx="4" fill="#cfd7de"/>
  <circle cx="1040" cy="708" r="2.4" fill="#8b95a1"/>
</g>

<!-- parked truck beside terminal -->
<g filter="url(#softSmall)" transform="translate(1150,590)">
  <rect x="0" y="34" width="128" height="82" rx="6" fill="url(#truckBody)" stroke="#c3ccd3" stroke-width="1.5"/>
  <path d="M128 44 h32 a12 12 0 0 1 12 12 v60 h-44 Z" fill="#eef2f5" stroke="#c3ccd3" stroke-width="1.5"/>
  <rect x="137" y="60" width="22" height="20" rx="3" fill="url(#glass)"/>
  <rect x="0" y="34" width="128" height="10" fill="#d3dbe1"/>
  <circle cx="30" cy="118" r="15" fill="#33404d"/>
  <circle cx="30" cy="118" r="6.5" fill="#8b95a1"/>
  <circle cx="140" cy="118" r="15" fill="#33404d"/>
  <circle cx="140" cy="118" r="6.5" fill="#8b95a1"/>
</g>

<!-- ============ SEARCH / NO-DATA BUBBLE ============ -->
<g filter="url(#softSmall)" transform="translate(1095,150)">
  <circle cx="0" cy="0" r="96" fill="url(#bubbleGlow)" stroke="#e1e6eb" stroke-width="1.5"/>
  <path d="M-30 90 L10 46 L45 66 Z" fill="url(#bubbleGlow)" stroke="#e1e6eb" stroke-width="1.5"/>

  <rect x="-36" y="-46" width="44" height="82" rx="4" fill="#eef2f6" stroke="#cdd5dc" stroke-width="1.5"/>
  <rect x="-27" y="-34" width="10" height="12" rx="1" fill="#cdd5dc"/>
  <rect x="-9" y="-34" width="10" height="12" rx="1" fill="#cdd5dc"/>
  <rect x="-27" y="-14" width="10" height="12" rx="1" fill="#cdd5dc"/>
  <rect x="-9" y="-14" width="10" height="12" rx="1" fill="#cdd5dc"/>
  <rect x="-27" y="6" width="10" height="12" rx="1" fill="#cdd5dc"/>
  <rect x="-9" y="6" width="10" height="12" rx="1" fill="#cdd5dc"/>

  <circle cx="26" cy="20" r="27" fill="none" stroke="#33404d" stroke-width="6.5"/>
  <line x1="46" y1="40" x2="63" y2="57" stroke="#33404d" stroke-width="7.5" stroke-linecap="round"/>
  <line x1="15" y1="9" x2="37" y2="31" stroke="#d15b3f" stroke-width="5.5" stroke-linecap="round"/>
  <line x1="37" y1="9" x2="15" y2="31" stroke="#d15b3f" stroke-width="5.5" stroke-linecap="round"/>
</g>

<!-- ============ PERSON (sitting, puzzled) ============ -->
<g filter="url(#softSmall)" transform="translate(605,468)">
  <path d="M-10 190 Q -72 196 -97 160 Q -102 149 -86 144 Q -60 176 -5 173 Z" fill="url(#pants)"/>
  <path d="M35 190 Q 97 196 121 158 Q 126 147 111 143 Q 84 173 30 173 Z" fill="url(#pants)"/>
  <ellipse cx="-97" cy="158" rx="15" ry="10.5" fill="#151f29"/>
  <ellipse cx="121" cy="156" rx="15" ry="10.5" fill="#151f29"/>

  <path d="M-56 60 Q -61 152 -30 182 L 46 182 Q 72 152 61 60 Q 61 29 20 24 Q -20 19 -56 60 Z" fill="url(#shirt)"/>

  <circle cx="5" cy="55" r="3" fill="#1a2938"/>
  <circle cx="5" cy="75" r="3" fill="#1a2938"/>
  <rect x="0" y="40" width="12" height="56" fill="#1e3245"/>

  <rect x="-41" y="90" width="27" height="21" rx="3" fill="#213347"/>
  <rect x="18" y="90" width="27" height="21" rx="3" fill="#213347"/>

  <path d="M-51 60 Q -82 71 -80 111 Q -78 137 -56 142 Q -45 144 -42 130 Q -56 124 -56 106 Q -56 83 -36 73 Z" fill="url(#shirt)"/>
  <circle cx="-59" cy="144" r="16" fill="#e8b48a"/>

  <path d="M56 65 Q 92 86 92 132 Q 92 152 69 154 Q 56 154 56 140 Q 69 137 71 119 Q 73 96 46 79 Z" fill="url(#shirt)"/>
  <circle cx="71" cy="152" r="16" fill="#e8b48a"/>

  <rect x="-8" y="10" width="20" height="19" fill="#e8b48a"/>
  <circle cx="2" cy="0" r="31" fill="#e8b48a"/>

  <path d="M-29 -8 Q -31 -39 2 -41 Q 35 -39 33 -8 Q 2 -21 -29 -8 Z" fill="#1a2938"/>
  <path d="M-29 -8 Q -10 -17 13 -15 L 21 4 Q -6 6 -31 2 Z" fill="#22384f"/>
  <rect x="19" y="-8" width="23" height="8" rx="4" fill="#1a2938"/>

  <path d="M-13 -3 q5 -6 10 0" stroke="#4a3728" stroke-width="2.5" fill="none" stroke-linecap="round"/>
  <path d="M9 -6 q5 -4 10 1" stroke="#4a3728" stroke-width="2.5" fill="none" stroke-linecap="round"/>
  <circle cx="-8" cy="4" r="2" fill="#4a3728"/>
  <circle cx="14" cy="2" r="2" fill="#4a3728"/>
  <path d="M-6 16 Q 3 12 10 17" stroke="#4a3728" stroke-width="2.5" fill="none" stroke-linecap="round"/>
</g>

<!-- bottom road with dashes -->
<g>
  <rect x="220" y="900" width="1100" height="16" rx="8" fill="#dde3e9"/>
  <g fill="#ffffff">
    <rect x="260" y="906" width="34" height="4"/>
    <rect x="330" y="906" width="34" height="4"/>
    <rect x="400" y="906" width="34" height="4"/>
    <rect x="470" y="906" width="34" height="4"/>
    <rect x="540" y="906" width="34" height="4"/>
    <rect x="610" y="906" width="34" height="4"/>
    <rect x="680" y="906" width="34" height="4"/>
    <rect x="750" y="906" width="34" height="4"/>
    <rect x="820" y="906" width="34" height="4"/>
    <rect x="890" y="906" width="34" height="4"/>
    <rect x="960" y="906" width="34" height="4"/>
    <rect x="1030" y="906" width="34" height="4"/>
    <rect x="1100" y="906" width="34" height="4"/>
    <rect x="1170" y="906" width="34" height="4"/>
    <rect x="1240" y="906" width="34" height="4"/>
  </g>
</g>

<!-- traffic cone -->
<g filter="url(#softSmall)" transform="translate(235,858)">
  <rect x="-23" y="38" width="46" height="10" rx="3" fill="#d9691a"/>
  <path d="M-17 38 L-3 -9 h6 L-1 38 Z" fill="url(#coneGrad)"/>
  <path d="M1 38 L-3 -9 h6 L17 38 Z" fill="url(#coneGrad)"/>
  <path d="M-17 38 L17 38 L11.5 20 L-11.5 20 Z" fill="#ffffff" opacity="0.92"/>
</g>

<!-- bushes -->
<g fill="#c4d3bf">
  <ellipse cx="1330" cy="895" rx="36" ry="17"/>
  <ellipse cx="1362" cy="900" rx="27" ry="12"/>
  <ellipse cx="128" cy="895" rx="32" ry="15"/>
</g>

<!-- ============ TEXT ============ -->
<text x="768" y="800" text-anchor="middle" font-family="Arial, Helvetica, sans-serif" font-size="54" font-weight="700" fill="#1c2836">Terminal not found</text>
<text x="768" y="846" text-anchor="middle" font-family="Arial, Helvetica, sans-serif" font-size="20" fill="#6d7784">We couldn't find any matching terminal.</text>
<text x="768" y="873" text-anchor="middle" font-family="Arial, Helvetica, sans-serif" font-size="20" fill="#6d7784">Please check the details or try a different search.</text>

</svg>
